<mxfile host="app.diagrams.net" modified="2024-02-06T16:19:06.986Z" agent="Mozilla/5.0 (Windows NT 10.0; Win64; x64) AppleWebKit/537.36 (KHTML, like Gecko) Chrome/120.0.0.0 Safari/537.36" etag="dbRCepK-L9kk8sZWLL8I" version="22.1.21" type="device">
  <diagram id="R2lEEEUBdFMjLlhIrx00" name="Page-1">
    <mxGraphModel dx="880" dy="468" grid="1" gridSize="10" guides="1" tooltips="1" connect="1" arrows="1" fold="1" page="1" pageScale="1" pageWidth="850" pageHeight="1100" math="0" shadow="0" extFonts="Permanent Marker^https://fonts.googleapis.com/css?family=Permanent+Marker">
      <root>
        <mxCell id="0" />
        <mxCell id="1" parent="0" />
        <mxCell id="hOizPuGYcCMCCfXTsmqX-1" value="&lt;b&gt;&lt;font style=&quot;font-size: 14px;&quot;&gt;User&lt;/font&gt;&lt;/b&gt;" style="rounded=0;whiteSpace=wrap;html=1;" vertex="1" parent="1">
          <mxGeometry x="230" y="180" width="140" height="80" as="geometry" />
        </mxCell>
        <mxCell id="hOizPuGYcCMCCfXTsmqX-2" value="userId" style="ellipse;whiteSpace=wrap;html=1;" vertex="1" parent="1">
          <mxGeometry x="90" y="110" width="50" height="40" as="geometry" />
        </mxCell>
        <mxCell id="hOizPuGYcCMCCfXTsmqX-3" value="firstname" style="ellipse;whiteSpace=wrap;html=1;" vertex="1" parent="1">
          <mxGeometry x="90" y="60" width="80" height="50" as="geometry" />
        </mxCell>
        <mxCell id="hOizPuGYcCMCCfXTsmqX-4" value="lastname" style="ellipse;whiteSpace=wrap;html=1;" vertex="1" parent="1">
          <mxGeometry x="140" y="20" width="80" height="50" as="geometry" />
        </mxCell>
        <mxCell id="hOizPuGYcCMCCfXTsmqX-5" value="email" style="ellipse;whiteSpace=wrap;html=1;" vertex="1" parent="1">
          <mxGeometry x="220" y="10" width="80" height="50" as="geometry" />
        </mxCell>
        <mxCell id="hOizPuGYcCMCCfXTsmqX-6" value="password" style="ellipse;whiteSpace=wrap;html=1;" vertex="1" parent="1">
          <mxGeometry x="310" y="30" width="80" height="50" as="geometry" />
        </mxCell>
        <mxCell id="hOizPuGYcCMCCfXTsmqX-8" value="isActive" style="ellipse;whiteSpace=wrap;html=1;" vertex="1" parent="1">
          <mxGeometry x="385" y="70" width="80" height="50" as="geometry" />
        </mxCell>
        <mxCell id="hOizPuGYcCMCCfXTsmqX-9" value="" style="endArrow=none;html=1;rounded=0;entryX=0;entryY=0.6;entryDx=0;entryDy=0;entryPerimeter=0;" edge="1" parent="1" target="hOizPuGYcCMCCfXTsmqX-8">
          <mxGeometry width="50" height="50" relative="1" as="geometry">
            <mxPoint x="300" y="180" as="sourcePoint" />
            <mxPoint x="440" y="150" as="targetPoint" />
          </mxGeometry>
        </mxCell>
        <mxCell id="hOizPuGYcCMCCfXTsmqX-11" value="" style="endArrow=none;html=1;rounded=0;" edge="1" parent="1">
          <mxGeometry width="50" height="50" relative="1" as="geometry">
            <mxPoint x="300" y="180" as="sourcePoint" />
            <mxPoint x="340" y="80" as="targetPoint" />
          </mxGeometry>
        </mxCell>
        <mxCell id="hOizPuGYcCMCCfXTsmqX-12" value="" style="endArrow=none;html=1;rounded=0;entryX=0.663;entryY=0.94;entryDx=0;entryDy=0;entryPerimeter=0;" edge="1" parent="1" target="hOizPuGYcCMCCfXTsmqX-5">
          <mxGeometry width="50" height="50" relative="1" as="geometry">
            <mxPoint x="300" y="180" as="sourcePoint" />
            <mxPoint x="300" y="52.5" as="targetPoint" />
            <Array as="points" />
          </mxGeometry>
        </mxCell>
        <mxCell id="hOizPuGYcCMCCfXTsmqX-13" value="" style="endArrow=none;html=1;rounded=0;exitX=0.713;exitY=1.02;exitDx=0;exitDy=0;exitPerimeter=0;" edge="1" parent="1" source="hOizPuGYcCMCCfXTsmqX-4">
          <mxGeometry width="50" height="50" relative="1" as="geometry">
            <mxPoint x="180" y="145" as="sourcePoint" />
            <mxPoint x="300" y="180" as="targetPoint" />
            <Array as="points" />
          </mxGeometry>
        </mxCell>
        <mxCell id="hOizPuGYcCMCCfXTsmqX-14" value="" style="endArrow=none;html=1;rounded=0;exitX=0.663;exitY=0.96;exitDx=0;exitDy=0;exitPerimeter=0;" edge="1" parent="1" source="hOizPuGYcCMCCfXTsmqX-3">
          <mxGeometry width="50" height="50" relative="1" as="geometry">
            <mxPoint x="180" y="165" as="sourcePoint" />
            <mxPoint x="300" y="180" as="targetPoint" />
            <Array as="points" />
          </mxGeometry>
        </mxCell>
        <mxCell id="hOizPuGYcCMCCfXTsmqX-15" value="" style="endArrow=none;html=1;rounded=0;exitX=1;exitY=1;exitDx=0;exitDy=0;" edge="1" parent="1" source="hOizPuGYcCMCCfXTsmqX-2">
          <mxGeometry width="50" height="50" relative="1" as="geometry">
            <mxPoint x="110" y="195" as="sourcePoint" />
            <mxPoint x="300" y="180" as="targetPoint" />
            <Array as="points" />
          </mxGeometry>
        </mxCell>
        <mxCell id="hOizPuGYcCMCCfXTsmqX-17" value="&lt;b&gt;&lt;font style=&quot;font-size: 14px;&quot;&gt;Role&lt;/font&gt;&lt;/b&gt;" style="rounded=0;whiteSpace=wrap;html=1;" vertex="1" parent="1">
          <mxGeometry x="640" y="180" width="140" height="80" as="geometry" />
        </mxCell>
        <mxCell id="hOizPuGYcCMCCfXTsmqX-18" value="roleId" style="ellipse;whiteSpace=wrap;html=1;" vertex="1" parent="1">
          <mxGeometry x="580" y="80" width="70" height="50" as="geometry" />
        </mxCell>
        <mxCell id="hOizPuGYcCMCCfXTsmqX-19" value="role" style="ellipse;whiteSpace=wrap;html=1;" vertex="1" parent="1">
          <mxGeometry x="690" y="80" width="60" height="40" as="geometry" />
        </mxCell>
        <mxCell id="hOizPuGYcCMCCfXTsmqX-20" value="" style="endArrow=none;html=1;rounded=0;entryX=0.5;entryY=1;entryDx=0;entryDy=0;exitX=0.5;exitY=0;exitDx=0;exitDy=0;" edge="1" parent="1" source="hOizPuGYcCMCCfXTsmqX-17" target="hOizPuGYcCMCCfXTsmqX-18">
          <mxGeometry width="50" height="50" relative="1" as="geometry">
            <mxPoint x="490" y="250" as="sourcePoint" />
            <mxPoint x="540" y="200" as="targetPoint" />
          </mxGeometry>
        </mxCell>
        <mxCell id="hOizPuGYcCMCCfXTsmqX-21" value="" style="endArrow=none;html=1;rounded=0;entryX=0.5;entryY=1;entryDx=0;entryDy=0;exitX=0.5;exitY=0;exitDx=0;exitDy=0;" edge="1" parent="1" source="hOizPuGYcCMCCfXTsmqX-17" target="hOizPuGYcCMCCfXTsmqX-19">
          <mxGeometry width="50" height="50" relative="1" as="geometry">
            <mxPoint x="757.5" y="170" as="sourcePoint" />
            <mxPoint x="662.5" y="120" as="targetPoint" />
            <Array as="points" />
          </mxGeometry>
        </mxCell>
        <mxCell id="hOizPuGYcCMCCfXTsmqX-22" value="&lt;b&gt;&lt;font style=&quot;font-size: 14px;&quot;&gt;User_Role&lt;/font&gt;&lt;/b&gt;" style="rounded=0;whiteSpace=wrap;html=1;" vertex="1" parent="1">
          <mxGeometry x="440" y="340" width="140" height="80" as="geometry" />
        </mxCell>
        <mxCell id="hOizPuGYcCMCCfXTsmqX-23" value="user_roleId" style="ellipse;whiteSpace=wrap;html=1;" vertex="1" parent="1">
          <mxGeometry x="310" y="480" width="80" height="50" as="geometry" />
        </mxCell>
        <mxCell id="hOizPuGYcCMCCfXTsmqX-24" value="userid" style="ellipse;whiteSpace=wrap;html=1;" vertex="1" parent="1">
          <mxGeometry x="440" y="500" width="80" height="50" as="geometry" />
        </mxCell>
        <mxCell id="hOizPuGYcCMCCfXTsmqX-25" value="roleid" style="ellipse;whiteSpace=wrap;html=1;" vertex="1" parent="1">
          <mxGeometry x="560" y="490" width="80" height="50" as="geometry" />
        </mxCell>
        <mxCell id="hOizPuGYcCMCCfXTsmqX-27" value="" style="endArrow=none;html=1;rounded=0;exitX=0.65;exitY=-0.02;exitDx=0;exitDy=0;exitPerimeter=0;entryX=0.386;entryY=1;entryDx=0;entryDy=0;entryPerimeter=0;" edge="1" parent="1" source="hOizPuGYcCMCCfXTsmqX-23" target="hOizPuGYcCMCCfXTsmqX-22">
          <mxGeometry width="50" height="50" relative="1" as="geometry">
            <mxPoint x="450" y="490" as="sourcePoint" />
            <mxPoint x="500" y="440" as="targetPoint" />
          </mxGeometry>
        </mxCell>
        <mxCell id="hOizPuGYcCMCCfXTsmqX-28" value="" style="endArrow=none;html=1;rounded=0;exitX=0.663;exitY=-0.02;exitDx=0;exitDy=0;exitPerimeter=0;entryX=0.407;entryY=1;entryDx=0;entryDy=0;entryPerimeter=0;" edge="1" parent="1" source="hOizPuGYcCMCCfXTsmqX-24" target="hOizPuGYcCMCCfXTsmqX-22">
          <mxGeometry width="50" height="50" relative="1" as="geometry">
            <mxPoint x="372" y="489" as="sourcePoint" />
            <mxPoint x="490" y="440" as="targetPoint" />
          </mxGeometry>
        </mxCell>
        <mxCell id="hOizPuGYcCMCCfXTsmqX-29" value="" style="endArrow=none;html=1;rounded=0;exitX=0.388;exitY=-0.02;exitDx=0;exitDy=0;entryX=0.429;entryY=1.013;entryDx=0;entryDy=0;entryPerimeter=0;exitPerimeter=0;" edge="1" parent="1" source="hOizPuGYcCMCCfXTsmqX-25" target="hOizPuGYcCMCCfXTsmqX-22">
          <mxGeometry width="50" height="50" relative="1" as="geometry">
            <mxPoint x="500" y="520" as="sourcePoint" />
            <mxPoint x="510" y="450" as="targetPoint" />
          </mxGeometry>
        </mxCell>
        <mxCell id="hOizPuGYcCMCCfXTsmqX-30" value="has" style="rhombus;whiteSpace=wrap;html=1;" vertex="1" parent="1">
          <mxGeometry x="265" y="350" width="70" height="60" as="geometry" />
        </mxCell>
        <mxCell id="hOizPuGYcCMCCfXTsmqX-31" value="" style="endArrow=none;html=1;rounded=0;entryX=0.5;entryY=1;entryDx=0;entryDy=0;exitX=0.5;exitY=0;exitDx=0;exitDy=0;" edge="1" parent="1" source="hOizPuGYcCMCCfXTsmqX-30" target="hOizPuGYcCMCCfXTsmqX-1">
          <mxGeometry width="50" height="50" relative="1" as="geometry">
            <mxPoint x="490" y="360" as="sourcePoint" />
            <mxPoint x="540" y="310" as="targetPoint" />
          </mxGeometry>
        </mxCell>
        <mxCell id="hOizPuGYcCMCCfXTsmqX-32" value="" style="endArrow=none;html=1;rounded=0;entryX=0;entryY=0.5;entryDx=0;entryDy=0;exitX=1;exitY=0.5;exitDx=0;exitDy=0;" edge="1" parent="1" source="hOizPuGYcCMCCfXTsmqX-30" target="hOizPuGYcCMCCfXTsmqX-22">
          <mxGeometry width="50" height="50" relative="1" as="geometry">
            <mxPoint x="310" y="360" as="sourcePoint" />
            <mxPoint x="310" y="270" as="targetPoint" />
          </mxGeometry>
        </mxCell>
        <mxCell id="hOizPuGYcCMCCfXTsmqX-33" value="" style="endArrow=none;html=1;rounded=0;entryX=0.5;entryY=1;entryDx=0;entryDy=0;exitX=0.5;exitY=0;exitDx=0;exitDy=0;" edge="1" parent="1" source="hOizPuGYcCMCCfXTsmqX-34" target="hOizPuGYcCMCCfXTsmqX-17">
          <mxGeometry width="50" height="50" relative="1" as="geometry">
            <mxPoint x="710" y="330" as="sourcePoint" />
            <mxPoint x="310" y="270" as="targetPoint" />
          </mxGeometry>
        </mxCell>
        <mxCell id="hOizPuGYcCMCCfXTsmqX-34" value="has" style="rhombus;whiteSpace=wrap;html=1;" vertex="1" parent="1">
          <mxGeometry x="675" y="340" width="70" height="60" as="geometry" />
        </mxCell>
        <mxCell id="hOizPuGYcCMCCfXTsmqX-35" value="" style="endArrow=none;html=1;rounded=0;entryX=0;entryY=0.5;entryDx=0;entryDy=0;" edge="1" parent="1" target="hOizPuGYcCMCCfXTsmqX-34">
          <mxGeometry width="50" height="50" relative="1" as="geometry">
            <mxPoint x="580" y="370" as="sourcePoint" />
            <mxPoint x="670" y="370" as="targetPoint" />
          </mxGeometry>
        </mxCell>
        <mxCell id="hOizPuGYcCMCCfXTsmqX-38" value="n" style="text;html=1;strokeColor=none;fillColor=none;align=center;verticalAlign=middle;whiteSpace=wrap;rounded=0;" vertex="1" parent="1">
          <mxGeometry x="395" y="360" width="45" height="20" as="geometry" />
        </mxCell>
        <mxCell id="hOizPuGYcCMCCfXTsmqX-40" value="n" style="text;html=1;strokeColor=none;fillColor=none;align=center;verticalAlign=middle;whiteSpace=wrap;rounded=0;" vertex="1" parent="1">
          <mxGeometry x="580" y="350" width="30" height="20" as="geometry" />
        </mxCell>
        <mxCell id="hOizPuGYcCMCCfXTsmqX-41" value="1" style="text;html=1;strokeColor=none;fillColor=none;align=center;verticalAlign=middle;whiteSpace=wrap;rounded=0;" vertex="1" parent="1">
          <mxGeometry x="300" y="260" width="30" height="25" as="geometry" />
        </mxCell>
        <mxCell id="hOizPuGYcCMCCfXTsmqX-42" value="1" style="text;html=1;strokeColor=none;fillColor=none;align=center;verticalAlign=middle;whiteSpace=wrap;rounded=0;" vertex="1" parent="1">
          <mxGeometry x="680" y="260" width="30" height="25" as="geometry" />
        </mxCell>
      </root>
    </mxGraphModel>
  </diagram>
</mxfile>
